%TF.GenerationSoftware,KiCad,Pcbnew,9.0.7*%
%TF.CreationDate,2026-02-22T13:30:04+00:00*%
%TF.ProjectId,Maze Solver Finalisation,4d617a65-2053-46f6-9c76-65722046696e,rev?*%
%TF.SameCoordinates,Original*%
%TF.FileFunction,Copper,L1,Top*%
%TF.FilePolarity,Positive*%
%FSLAX46Y46*%
G04 Gerber Fmt 4.6, Leading zero omitted, Abs format (unit mm)*
G04 Created by KiCad (PCBNEW 9.0.7) date 2026-02-22 13:30:04*
%MOMM*%
%LPD*%
G01*
G04 APERTURE LIST*
G04 Aperture macros list*
%AMRoundRect*
0 Rectangle with rounded corners*
0 $1 Rounding radius*
0 $2 $3 $4 $5 $6 $7 $8 $9 X,Y pos of 4 corners*
0 Add a 4 corners polygon primitive as box body*
4,1,4,$2,$3,$4,$5,$6,$7,$8,$9,$2,$3,0*
0 Add four circle primitives for the rounded corners*
1,1,$1+$1,$2,$3*
1,1,$1+$1,$4,$5*
1,1,$1+$1,$6,$7*
1,1,$1+$1,$8,$9*
0 Add four rect primitives between the rounded corners*
20,1,$1+$1,$2,$3,$4,$5,0*
20,1,$1+$1,$4,$5,$6,$7,0*
20,1,$1+$1,$6,$7,$8,$9,0*
20,1,$1+$1,$8,$9,$2,$3,0*%
G04 Aperture macros list end*
%TA.AperFunction,SMDPad,CuDef*%
%ADD10RoundRect,0.250000X-0.400000X-0.625000X0.400000X-0.625000X0.400000X0.625000X-0.400000X0.625000X0*%
%TD*%
%TA.AperFunction,ComponentPad*%
%ADD11RoundRect,0.249200X0.450800X-0.450800X0.450800X0.450800X-0.450800X0.450800X-0.450800X-0.450800X0*%
%TD*%
%TA.AperFunction,ComponentPad*%
%ADD12C,1.400000*%
%TD*%
%TA.AperFunction,ComponentPad*%
%ADD13C,5.600000*%
%TD*%
%TA.AperFunction,ComponentPad*%
%ADD14R,1.700000X1.700000*%
%TD*%
%TA.AperFunction,ComponentPad*%
%ADD15C,1.700000*%
%TD*%
%TA.AperFunction,ComponentPad*%
%ADD16R,1.800000X1.800000*%
%TD*%
%TA.AperFunction,ComponentPad*%
%ADD17C,1.800000*%
%TD*%
%TA.AperFunction,ComponentPad*%
%ADD18C,2.340000*%
%TD*%
%TA.AperFunction,ViaPad*%
%ADD19C,1.500000*%
%TD*%
%TA.AperFunction,Conductor*%
%ADD20C,0.800000*%
%TD*%
%TA.AperFunction,Profile*%
%ADD21C,0.050000*%
%TD*%
G04 APERTURE END LIST*
D10*
%TO.P,R2,1*%
%TO.N,Net-(D1-A)*%
X46450000Y-26000000D03*
%TO.P,R2,2*%
%TO.N,Net-(IRA1-Pin_1)*%
X49550000Y-26000000D03*
%TD*%
D11*
%TO.P,D1,1,K*%
%TO.N,Net-(D1-K)*%
X38225000Y-33325000D03*
D12*
%TO.P,D1,2,A*%
%TO.N,Net-(D1-A)*%
X38225000Y-30765000D03*
%TD*%
D13*
%TO.P,REF\u002A\u002A,1*%
%TO.N,N/C*%
X37000000Y-47500000D03*
%TD*%
%TO.P,REF\u002A\u002A,1*%
%TO.N,N/C*%
X37000000Y-24500000D03*
%TD*%
%TO.P,REF\u002A\u002A,1*%
%TO.N,N/C*%
X60000000Y-24500000D03*
%TD*%
D10*
%TO.P,R3,1*%
%TO.N,Net-(D2-K)*%
X46450000Y-31000000D03*
%TO.P,R3,2*%
%TO.N,Net-(IRA1-Pin_1)*%
X49550000Y-31000000D03*
%TD*%
D14*
%TO.P,IRA1,1,Pin_1*%
%TO.N,Net-(IRA1-Pin_1)*%
X59500000Y-31690000D03*
D15*
%TO.P,IRA1,2,Pin_2*%
%TO.N,Net-(IRA1-Pin_2)*%
X59500000Y-34230000D03*
%TO.P,IRA1,3,Pin_3*%
%TO.N,Net-(D1-A)*%
X59500000Y-36770000D03*
%TO.P,IRA1,4,Pin_4*%
%TO.N,Net-(D1-K)*%
X59500000Y-39310000D03*
%TD*%
D16*
%TO.P,D2,1,K*%
%TO.N,Net-(D2-K)*%
X38000000Y-39770000D03*
D17*
%TO.P,D2,2,A*%
%TO.N,Net-(D1-K)*%
X38000000Y-37230000D03*
%TD*%
D13*
%TO.P,REF\u002A\u002A,1*%
%TO.N,N/C*%
X60000000Y-47500000D03*
%TD*%
D18*
%TO.P,RV1,1,1*%
%TO.N,Net-(D1-K)*%
X50500000Y-43000000D03*
%TO.P,RV1,2,2*%
%TO.N,Net-(IRA1-Pin_2)*%
X48000000Y-40500000D03*
%TO.P,RV1,3,3*%
%TO.N,Net-(IRA1-Pin_1)*%
X50500000Y-38000000D03*
%TD*%
D19*
%TO.N,Net-(IRA1-Pin_1)*%
X54500000Y-31000000D03*
%TO.N,Net-(D2-K)*%
X35000000Y-35500000D03*
%TO.N,Net-(D1-A)*%
X43500000Y-26000000D03*
%TD*%
D20*
%TO.N,Net-(D2-K)*%
X40000000Y-35500000D02*
X44500000Y-31000000D01*
X44500000Y-31000000D02*
X46450000Y-31000000D01*
%TO.N,Net-(D1-A)*%
X43500000Y-26000000D02*
X46450000Y-26000000D01*
%TO.N,Net-(IRA1-Pin_1)*%
X54500000Y-31000000D02*
X49550000Y-31000000D01*
X49550000Y-26050000D02*
X54500000Y-31000000D01*
X49550000Y-26000000D02*
X49550000Y-26050000D01*
%TO.N,Net-(D2-K)*%
X35000000Y-35500000D02*
X40000000Y-35500000D01*
%TD*%
D21*
X32500000Y-20000000D02*
X64500000Y-20000000D01*
X64500000Y-52000000D01*
X32500000Y-52000000D01*
X32500000Y-20000000D01*
M02*
