%TF.GenerationSoftware,KiCad,Pcbnew,9.0.7*%
%TF.CreationDate,2026-02-22T13:37:10+00:00*%
%TF.ProjectId,Maze Solver Finalisation,4d617a65-2053-46f6-9c76-65722046696e,rev?*%
%TF.SameCoordinates,Original*%
%TF.FileFunction,Copper,L1,Top*%
%TF.FilePolarity,Positive*%
%FSLAX46Y46*%
G04 Gerber Fmt 4.6, Leading zero omitted, Abs format (unit mm)*
G04 Created by KiCad (PCBNEW 9.0.7) date 2026-02-22 13:37:10*
%MOMM*%
%LPD*%
G01*
G04 APERTURE LIST*
G04 Aperture macros list*
%AMRoundRect*
0 Rectangle with rounded corners*
0 $1 Rounding radius*
0 $2 $3 $4 $5 $6 $7 $8 $9 X,Y pos of 4 corners*
0 Add a 4 corners polygon primitive as box body*
4,1,4,$2,$3,$4,$5,$6,$7,$8,$9,$2,$3,0*
0 Add four circle primitives for the rounded corners*
1,1,$1+$1,$2,$3*
1,1,$1+$1,$4,$5*
1,1,$1+$1,$6,$7*
1,1,$1+$1,$8,$9*
0 Add four rect primitives between the rounded corners*
20,1,$1+$1,$2,$3,$4,$5,0*
20,1,$1+$1,$4,$5,$6,$7,0*
20,1,$1+$1,$6,$7,$8,$9,0*
20,1,$1+$1,$8,$9,$2,$3,0*%
G04 Aperture macros list end*
%TA.AperFunction,ComponentPad*%
%ADD10R,1.700000X1.700000*%
%TD*%
%TA.AperFunction,ComponentPad*%
%ADD11C,1.700000*%
%TD*%
%TA.AperFunction,ComponentPad*%
%ADD12C,5.600000*%
%TD*%
%TA.AperFunction,SMDPad,CuDef*%
%ADD13RoundRect,0.250000X0.625000X-0.400000X0.625000X0.400000X-0.625000X0.400000X-0.625000X-0.400000X0*%
%TD*%
%TA.AperFunction,SMDPad,CuDef*%
%ADD14RoundRect,0.250000X-0.625000X0.400000X-0.625000X-0.400000X0.625000X-0.400000X0.625000X0.400000X0*%
%TD*%
%TA.AperFunction,ComponentPad*%
%ADD15C,1.600000*%
%TD*%
%TA.AperFunction,ComponentPad*%
%ADD16R,4.600000X2.000000*%
%TD*%
%TA.AperFunction,ComponentPad*%
%ADD17O,4.200000X2.000000*%
%TD*%
%TA.AperFunction,ComponentPad*%
%ADD18O,2.000000X4.200000*%
%TD*%
%TA.AperFunction,ComponentPad*%
%ADD19RoundRect,0.250000X-0.550000X0.550000X-0.550000X-0.550000X0.550000X-0.550000X0.550000X0.550000X0*%
%TD*%
%TA.AperFunction,ComponentPad*%
%ADD20C,1.500000*%
%TD*%
%TA.AperFunction,ComponentPad*%
%ADD21RoundRect,0.250000X-0.950000X-0.550000X0.950000X-0.550000X0.950000X0.550000X-0.950000X0.550000X0*%
%TD*%
%TA.AperFunction,ComponentPad*%
%ADD22O,2.400000X1.600000*%
%TD*%
%TA.AperFunction,ViaPad*%
%ADD23C,1.500000*%
%TD*%
%TA.AperFunction,Conductor*%
%ADD24C,0.800000*%
%TD*%
%TA.AperFunction,Profile*%
%ADD25C,0.050000*%
%TD*%
G04 APERTURE END LIST*
D10*
%TO.P,M4,1,PWM*%
%TO.N,Net-(A3-D5)*%
X184500000Y-101500000D03*
D11*
%TO.P,M4,2,+*%
%TO.N,Net-(M1-+)*%
X184500000Y-104040000D03*
%TO.P,M4,3,-*%
%TO.N,GND*%
X184500000Y-106580000D03*
%TD*%
D12*
%TO.P,,1*%
%TO.N,N/C*%
X81000000Y-24500000D03*
%TD*%
D10*
%TO.P,M2,1,PWM*%
%TO.N,Net-(A3-D3)*%
X80500000Y-106500000D03*
D11*
%TO.P,M2,2,+*%
%TO.N,Net-(M1-+)*%
X80500000Y-103960000D03*
%TO.P,M2,3,-*%
%TO.N,GND*%
X80500000Y-101420000D03*
%TD*%
D13*
%TO.P,R25,1*%
%TO.N,Net-(A3-A1)*%
X172000000Y-72050000D03*
%TO.P,R25,2*%
%TO.N,GND*%
X172000000Y-68950000D03*
%TD*%
%TO.P,R26,1*%
%TO.N,Net-(A3-A0)*%
X175000000Y-72050000D03*
%TO.P,R26,2*%
%TO.N,GND*%
X175000000Y-68950000D03*
%TD*%
D12*
%TO.P,,1*%
%TO.N,N/C*%
X81000000Y-127500000D03*
%TD*%
D11*
%TO.P,V-in1,1,Pin_1*%
%TO.N,Net-(V-in1-Pin_1)*%
X104500000Y-110750000D03*
%TD*%
D14*
%TO.P,R9,1*%
%TO.N,Net-(A3-D6)*%
X131500000Y-80950000D03*
%TO.P,R9,2*%
%TO.N,Net-(A3-VUSB{slash}5V)*%
X131500000Y-84050000D03*
%TD*%
D10*
%TO.P,IR3,1,Pin_1*%
%TO.N,GND*%
X80500000Y-111000000D03*
D11*
%TO.P,IR3,2,Pin_2*%
%TO.N,Net-(IR3-Pin_2)*%
X80500000Y-113540000D03*
%TO.P,IR3,3,Pin_3*%
%TO.N,Net-(IR3-Pin_3)*%
X80500000Y-116080000D03*
%TO.P,IR3,4,Pin_4*%
%TO.N,Net-(A3-VUSB{slash}5V)*%
X80500000Y-118620000D03*
%TD*%
D10*
%TO.P,SW1,1,A*%
%TO.N,Net-(SW1-A)*%
X96500000Y-116500000D03*
D11*
%TO.P,SW1,2,B*%
%TO.N,Net-(SW1-B)*%
X96500000Y-113960000D03*
%TD*%
%TO.P,V+out1,1,Pin_1*%
%TO.N,Net-(M1-+)*%
X86500000Y-71250000D03*
%TD*%
D10*
%TO.P,US2,1,Pin_1*%
%TO.N,+5V*%
X184500000Y-80000000D03*
D11*
%TO.P,US2,2,Pin_2*%
%TO.N,Net-(U5-PD2)*%
X184500000Y-77460000D03*
%TO.P,US2,3,Pin_3*%
%TO.N,Net-(U5-PD4)*%
X184500000Y-74920000D03*
%TO.P,US2,4,Pin_4*%
%TO.N,GND*%
X184500000Y-72380000D03*
%TD*%
%TO.P,A3,1,D1/TX*%
%TO.N,Net-(A3-D1{slash}TX)*%
X144500000Y-56950000D03*
%TO.P,A3,2,D0/RX*%
%TO.N,Net-(A3-D0{slash}RX)*%
X144500000Y-59490000D03*
%TO.P,A3,3,~{RESET}*%
%TO.N,unconnected-(A3-~{RESET}-Pad3)*%
X144500000Y-62030000D03*
%TO.P,A3,4,GND*%
%TO.N,GND*%
X144500000Y-64570000D03*
%TO.P,A3,5,D2*%
%TO.N,Net-(A3-D2)*%
X144500000Y-67110000D03*
%TO.P,A3,6,D3*%
%TO.N,Net-(A3-D3)*%
X144500000Y-69650000D03*
%TO.P,A3,7,D4*%
%TO.N,Net-(A3-D4)*%
X144500000Y-72190000D03*
%TO.P,A3,8,D5*%
%TO.N,Net-(A3-D5)*%
X144500000Y-74730000D03*
%TO.P,A3,9,D6*%
%TO.N,Net-(A3-D6)*%
X144500000Y-77270000D03*
%TO.P,A3,10,D7*%
%TO.N,Net-(A3-D7)*%
X144500000Y-79810000D03*
%TO.P,A3,11,D8*%
%TO.N,Net-(A3-D8)*%
X144500000Y-82350000D03*
%TO.P,A3,12,D9*%
%TO.N,unconnected-(A3-D9-Pad12)*%
X144500000Y-84890000D03*
%TO.P,A3,13,D10/CS*%
%TO.N,unconnected-(A3-D10{slash}CS-Pad13)*%
X144500000Y-87430000D03*
%TO.P,A3,14,D11/COPI*%
%TO.N,unconnected-(A3-D11{slash}COPI-Pad14)*%
X144500000Y-89970000D03*
%TO.P,A3,15,D12/CIPO*%
%TO.N,unconnected-(A3-D12{slash}CIPO-Pad15)*%
X144500000Y-92510000D03*
%TO.P,A3,16,D13/SCK*%
%TO.N,unconnected-(A3-D13{slash}SCK-Pad16)*%
X159740000Y-92510000D03*
%TO.P,A3,17,3V3*%
%TO.N,unconnected-(A3-3V3-Pad17)*%
X159740000Y-89970000D03*
%TO.P,A3,18,REF*%
%TO.N,unconnected-(A3-REF-Pad18)*%
X159740000Y-87430000D03*
%TO.P,A3,19,A0*%
%TO.N,Net-(A3-A0)*%
X159740000Y-84890000D03*
%TO.P,A3,20,A1*%
%TO.N,Net-(A3-A1)*%
X159740000Y-82350000D03*
%TO.P,A3,21,A2*%
%TO.N,Net-(A3-A2)*%
X159740000Y-79810000D03*
%TO.P,A3,22,A3*%
%TO.N,Net-(A3-A3)*%
X159740000Y-77270000D03*
%TO.P,A3,23,SDA/A4*%
%TO.N,Net-(A3-SDA{slash}A4)*%
X159740000Y-74730000D03*
%TO.P,A3,24,SCL/A5*%
%TO.N,Net-(A3-SCL{slash}A5)*%
X159740000Y-72190000D03*
%TO.P,A3,25,A6*%
%TO.N,unconnected-(A3-A6-Pad25)*%
X159740000Y-69650000D03*
%TO.P,A3,26,A7*%
%TO.N,unconnected-(A3-A7-Pad26)*%
X159740000Y-67110000D03*
%TO.P,A3,27,VUSB/5V*%
%TO.N,Net-(A3-VUSB{slash}5V)*%
X159740000Y-64570000D03*
%TO.P,A3,28,REC*%
%TO.N,unconnected-(A3-REC-Pad28)*%
X159740000Y-62030000D03*
%TO.P,A3,29,GND*%
%TO.N,GND*%
X159740000Y-59490000D03*
%TO.P,A3,30,VIN*%
%TO.N,+5V*%
X159740000Y-56950000D03*
%TD*%
%TO.P,V+in2,1,Pin_1*%
%TO.N,Net-(SW1-B)*%
X108970000Y-110500000D03*
%TD*%
%TO.P,V-in2,1,Pin_1*%
%TO.N,Net-(V-in1-Pin_1)*%
X126470000Y-110500000D03*
%TD*%
D10*
%TO.P,DigiPot,1,1*%
%TO.N,Net-(A3-D6)*%
X131000000Y-51340000D03*
D11*
%TO.P,DigiPot,2,2*%
%TO.N,Net-(A3-D7)*%
X131000000Y-53880000D03*
%TO.P,DigiPot,3,3*%
%TO.N,GND*%
X131000000Y-56420000D03*
%TO.P,DigiPot,4,4*%
X131000000Y-58960000D03*
%TO.P,DigiPot,5,5*%
%TO.N,Net-(A3-D8)*%
X131000000Y-61500000D03*
%TD*%
D10*
%TO.P,LCD1,1,Pin_1*%
%TO.N,GND*%
X184500000Y-89960000D03*
D11*
%TO.P,LCD1,2,Pin_2*%
%TO.N,Net-(A3-VUSB{slash}5V)*%
X184500000Y-92500000D03*
%TO.P,LCD1,3,Pin_3*%
%TO.N,Net-(A3-SDA{slash}A4)*%
X184500000Y-95040000D03*
%TO.P,LCD1,4,Pin_4*%
%TO.N,Net-(A3-SCL{slash}A5)*%
X184500000Y-97580000D03*
%TD*%
D14*
%TO.P,R7,1*%
%TO.N,Net-(A3-D8)*%
X139500000Y-86450000D03*
%TO.P,R7,2*%
%TO.N,Net-(A3-VUSB{slash}5V)*%
X139500000Y-89550000D03*
%TD*%
D15*
%TO.P,C1,1*%
%TO.N,Net-(U5-XTAL1{slash}PB6)*%
X107120000Y-36120000D03*
%TO.P,C1,2*%
%TO.N,GND*%
X107120000Y-31120000D03*
%TD*%
D16*
%TO.P,J2,1*%
%TO.N,Net-(SW1-A)*%
X104500000Y-115700000D03*
D17*
%TO.P,J2,2*%
%TO.N,Net-(V-in1-Pin_1)*%
X104500000Y-122000000D03*
D18*
%TO.P,J2,3*%
X109300000Y-118600000D03*
%TD*%
D19*
%TO.P,U5,1,~{RESET}/PC6*%
%TO.N,unconnected-(U5-~{RESET}{slash}PC6-Pad1)*%
X124820000Y-49500000D03*
D15*
%TO.P,U5,2,PD0*%
%TO.N,Net-(A3-D1{slash}TX)*%
X122280000Y-49500000D03*
%TO.P,U5,3,PD1*%
%TO.N,Net-(A3-D0{slash}RX)*%
X119740000Y-49500000D03*
%TO.P,U5,4,PD2*%
%TO.N,Net-(U5-PD2)*%
X117200000Y-49500000D03*
%TO.P,U5,5,PD3*%
%TO.N,Net-(U5-PD3)*%
X114660000Y-49500000D03*
%TO.P,U5,6,PD4*%
%TO.N,Net-(U5-PD4)*%
X112120000Y-49500000D03*
%TO.P,U5,7,VCC*%
%TO.N,+5V*%
X109580000Y-49500000D03*
%TO.P,U5,8,GND*%
%TO.N,GND*%
X107040000Y-49500000D03*
%TO.P,U5,9,XTAL1/PB6*%
%TO.N,Net-(U5-XTAL1{slash}PB6)*%
X104500000Y-49500000D03*
%TO.P,U5,10,XTAL2/PB7*%
%TO.N,Net-(U5-XTAL2{slash}PB7)*%
X101960000Y-49500000D03*
%TO.P,U5,11,PD5*%
%TO.N,Net-(U5-PD5)*%
X99420000Y-49500000D03*
%TO.P,U5,12,PD6*%
%TO.N,Net-(U5-PD6)*%
X96880000Y-49500000D03*
%TO.P,U5,13,PD7*%
%TO.N,unconnected-(U5-PD7-Pad13)*%
X94340000Y-49500000D03*
%TO.P,U5,14,PB0*%
%TO.N,unconnected-(U5-PB0-Pad14)*%
X91800000Y-49500000D03*
%TO.P,U5,15,PB1*%
%TO.N,unconnected-(U5-PB1-Pad15)*%
X91800000Y-57120000D03*
%TO.P,U5,16,PB2*%
%TO.N,unconnected-(U5-PB2-Pad16)*%
X94340000Y-57120000D03*
%TO.P,U5,17,PB3*%
%TO.N,unconnected-(U5-PB3-Pad17)*%
X96880000Y-57120000D03*
%TO.P,U5,18,PB4*%
%TO.N,unconnected-(U5-PB4-Pad18)*%
X99420000Y-57120000D03*
%TO.P,U5,19,PB5*%
%TO.N,unconnected-(U5-PB5-Pad19)*%
X101960000Y-57120000D03*
%TO.P,U5,20,AVCC*%
%TO.N,+5V*%
X104500000Y-57120000D03*
%TO.P,U5,21,AREF*%
%TO.N,unconnected-(U5-AREF-Pad21)*%
X107040000Y-57120000D03*
%TO.P,U5,22,GND*%
%TO.N,GND*%
X109580000Y-57120000D03*
%TO.P,U5,23,PC0*%
%TO.N,unconnected-(U5-PC0-Pad23)*%
X112120000Y-57120000D03*
%TO.P,U5,24,PC1*%
%TO.N,unconnected-(U5-PC1-Pad24)*%
X114660000Y-57120000D03*
%TO.P,U5,25,PC2*%
%TO.N,unconnected-(U5-PC2-Pad25)*%
X117200000Y-57120000D03*
%TO.P,U5,26,PC3*%
%TO.N,unconnected-(U5-PC3-Pad26)*%
X119740000Y-57120000D03*
%TO.P,U5,27,PC4*%
%TO.N,unconnected-(U5-PC4-Pad27)*%
X122280000Y-57120000D03*
%TO.P,U5,28,PC5*%
%TO.N,unconnected-(U5-PC5-Pad28)*%
X124820000Y-57120000D03*
%TD*%
D10*
%TO.P,M3,1,PWM*%
%TO.N,Net-(A3-D4)*%
X184000000Y-47000000D03*
D11*
%TO.P,M3,2,+*%
%TO.N,Net-(M1-+)*%
X184000000Y-49540000D03*
%TO.P,M3,3,-*%
%TO.N,GND*%
X184000000Y-52080000D03*
%TD*%
D10*
%TO.P,IR4,1,Pin_1*%
%TO.N,GND*%
X184500000Y-120000000D03*
D11*
%TO.P,IR4,2,Pin_2*%
%TO.N,Net-(IR4-Pin_2)*%
X184500000Y-117460000D03*
%TO.P,IR4,3,Pin_3*%
%TO.N,Net-(IR4-Pin_3)*%
X184500000Y-114920000D03*
%TO.P,IR4,4,Pin_4*%
%TO.N,Net-(A3-VUSB{slash}5V)*%
X184500000Y-112380000D03*
%TD*%
D10*
%TO.P,M1,1,PWM*%
%TO.N,Net-(A3-D2)*%
X81000000Y-51000000D03*
D11*
%TO.P,M1,2,+*%
%TO.N,Net-(M1-+)*%
X81000000Y-48460000D03*
%TO.P,M1,3,-*%
%TO.N,GND*%
X81000000Y-45920000D03*
%TD*%
%TO.P,V+out2,1,Pin_1*%
%TO.N,+5V*%
X108970000Y-71500000D03*
%TD*%
D10*
%TO.P,US3,1,Pin_1*%
%TO.N,+5V*%
X128690000Y-128000000D03*
D11*
%TO.P,US3,2,Pin_2*%
%TO.N,Net-(U5-PD2)*%
X131230000Y-128000000D03*
%TO.P,US3,3,Pin_3*%
%TO.N,Net-(U5-PD5)*%
X133770000Y-128000000D03*
%TO.P,US3,4,Pin_4*%
%TO.N,GND*%
X136310000Y-128000000D03*
%TD*%
D20*
%TO.P,Y1,1,1*%
%TO.N,Net-(U5-XTAL2{slash}PB7)*%
X102180000Y-41620000D03*
%TO.P,Y1,2,2*%
%TO.N,Net-(U5-XTAL1{slash}PB6)*%
X107060000Y-41620000D03*
%TD*%
D12*
%TO.P,,1*%
%TO.N,N/C*%
X184000000Y-127500000D03*
%TD*%
D21*
%TO.P,U7,1*%
%TO.N,Net-(A3-A2)*%
X148190000Y-104690000D03*
D22*
%TO.P,U7,2,-*%
%TO.N,Net-(IR3-Pin_2)*%
X148190000Y-107230000D03*
%TO.P,U7,3,+*%
%TO.N,Net-(IR3-Pin_3)*%
X148190000Y-109770000D03*
%TO.P,U7,4,V-*%
%TO.N,GND*%
X148190000Y-112310000D03*
%TO.P,U7,5,+*%
%TO.N,Net-(IR4-Pin_3)*%
X155810000Y-112310000D03*
%TO.P,U7,6,-*%
%TO.N,Net-(IR4-Pin_2)*%
X155810000Y-109770000D03*
%TO.P,U7,7*%
%TO.N,Net-(A3-A3)*%
X155810000Y-107230000D03*
%TO.P,U7,8,V+*%
%TO.N,Net-(A3-VUSB{slash}5V)*%
X155810000Y-104690000D03*
%TD*%
D13*
%TO.P,R13,1*%
%TO.N,Net-(A3-A3)*%
X165000000Y-72050000D03*
%TO.P,R13,2*%
%TO.N,GND*%
X165000000Y-68950000D03*
%TD*%
D10*
%TO.P,US4,1,Pin_1*%
%TO.N,+5V*%
X80500000Y-72190000D03*
D11*
%TO.P,US4,2,Pin_2*%
%TO.N,Net-(U5-PD2)*%
X80500000Y-74730000D03*
%TO.P,US4,3,Pin_3*%
%TO.N,Net-(U5-PD6)*%
X80500000Y-77270000D03*
%TO.P,US4,4,Pin_4*%
%TO.N,GND*%
X80500000Y-79810000D03*
%TD*%
D10*
%TO.P,IR2,1,Pin_1*%
%TO.N,GND*%
X184000000Y-41500000D03*
D11*
%TO.P,IR2,2,Pin_2*%
%TO.N,Net-(IR2-Pin_2)*%
X184000000Y-38960000D03*
%TO.P,IR2,3,Pin_3*%
%TO.N,Net-(IR2-Pin_3)*%
X184000000Y-36420000D03*
%TO.P,IR2,4,Pin_4*%
%TO.N,Net-(A3-VUSB{slash}5V)*%
X184000000Y-33880000D03*
%TD*%
D14*
%TO.P,R8,1*%
%TO.N,Net-(A3-D7)*%
X135500000Y-83950000D03*
%TO.P,R8,2*%
%TO.N,Net-(A3-VUSB{slash}5V)*%
X135500000Y-87050000D03*
%TD*%
D15*
%TO.P,C2,1*%
%TO.N,GND*%
X102120000Y-31120000D03*
%TO.P,C2,2*%
%TO.N,Net-(U5-XTAL2{slash}PB7)*%
X102120000Y-36120000D03*
%TD*%
D11*
%TO.P,V-out1,1,Pin_1*%
%TO.N,GND*%
X104500000Y-71250000D03*
%TD*%
D10*
%TO.P,IR1,1,Pin_1*%
%TO.N,GND*%
X81500000Y-31500000D03*
D11*
%TO.P,IR1,2,Pin_2*%
%TO.N,Net-(IR1-Pin_2)*%
X81500000Y-34040000D03*
%TO.P,IR1,3,Pin_3*%
%TO.N,Net-(IR1-Pin_3)*%
X81500000Y-36580000D03*
%TO.P,IR1,4,Pin_4*%
%TO.N,Net-(A3-VUSB{slash}5V)*%
X81500000Y-39120000D03*
%TD*%
D13*
%TO.P,R12,1*%
%TO.N,Net-(A3-A2)*%
X168500000Y-72050000D03*
%TO.P,R12,2*%
%TO.N,GND*%
X168500000Y-68950000D03*
%TD*%
D12*
%TO.P,,1*%
%TO.N,N/C*%
X184000000Y-24500000D03*
%TD*%
D11*
%TO.P,V+in1,1,Pin_1*%
%TO.N,Net-(SW1-B)*%
X86500000Y-110750000D03*
%TD*%
D21*
%TO.P,U8,1*%
%TO.N,Net-(A3-A0)*%
X148690000Y-28880000D03*
D22*
%TO.P,U8,2,-*%
%TO.N,Net-(IR1-Pin_2)*%
X148690000Y-31420000D03*
%TO.P,U8,3,+*%
%TO.N,Net-(IR1-Pin_3)*%
X148690000Y-33960000D03*
%TO.P,U8,4,V-*%
%TO.N,GND*%
X148690000Y-36500000D03*
%TO.P,U8,5,+*%
%TO.N,Net-(IR2-Pin_3)*%
X156310000Y-36500000D03*
%TO.P,U8,6,-*%
%TO.N,Net-(IR2-Pin_2)*%
X156310000Y-33960000D03*
%TO.P,U8,7*%
%TO.N,Net-(A3-A1)*%
X156310000Y-31420000D03*
%TO.P,U8,8,V+*%
%TO.N,Net-(A3-VUSB{slash}5V)*%
X156310000Y-28880000D03*
%TD*%
D11*
%TO.P,V-out2,1,Pin_1*%
%TO.N,GND*%
X126470000Y-71500000D03*
%TD*%
D10*
%TO.P,US1,1,Pin_1*%
%TO.N,+5V*%
X136500000Y-24000000D03*
D11*
%TO.P,US1,2,Pin_2*%
%TO.N,Net-(U5-PD2)*%
X133960000Y-24000000D03*
%TO.P,US1,3,Pin_3*%
%TO.N,Net-(U5-PD3)*%
X131420000Y-24000000D03*
%TO.P,US1,4,Pin_4*%
%TO.N,GND*%
X128880000Y-24000000D03*
%TD*%
D23*
%TO.N,GND*%
X80500000Y-94000000D03*
X80500000Y-83500000D03*
X130250000Y-31750000D03*
X174000000Y-66500000D03*
X98000000Y-31000000D03*
X85500000Y-31500000D03*
X142500000Y-41000000D03*
X109500000Y-60000000D03*
X165000000Y-65000000D03*
X135000000Y-51000000D03*
X116500000Y-68500000D03*
X144500000Y-112500000D03*
X178500000Y-120000000D03*
X136310000Y-121190000D03*
%TO.N,Net-(A3-VUSB{slash}5V)*%
X156310000Y-25190000D03*
X130000000Y-101500000D03*
X96500000Y-128000000D03*
X88500000Y-39000000D03*
X178000000Y-32000000D03*
X141000000Y-95000000D03*
X163000000Y-62500000D03*
%TO.N,Net-(A3-A1)*%
X159500000Y-31500000D03*
X157850000Y-82350000D03*
X169000000Y-82350000D03*
%TO.N,Net-(A3-SDA{slash}A4)*%
X162230000Y-74730000D03*
X169500000Y-94500000D03*
%TO.N,Net-(A3-D7)*%
X135500000Y-79920000D03*
X126500000Y-66500000D03*
%TO.N,Net-(A3-D8)*%
X131000000Y-66500000D03*
X139570000Y-82350000D03*
%TO.N,Net-(A3-A3)*%
X163000000Y-107500000D03*
X181000000Y-90000000D03*
X165000000Y-75000000D03*
%TO.N,Net-(A3-D6)*%
X122500000Y-66500000D03*
X131150000Y-77270000D03*
%TO.N,Net-(A3-D5)*%
X148000000Y-77500000D03*
X165750000Y-96750000D03*
%TO.N,Net-(A3-A0)*%
X171000000Y-84890000D03*
X156000000Y-83000000D03*
X145500000Y-29000000D03*
%TO.N,Net-(A3-A2)*%
X150000000Y-94000000D03*
X143000000Y-98500000D03*
X167000000Y-79500000D03*
%TO.N,+5V*%
X154000000Y-54500000D03*
X80500000Y-67500000D03*
X106250000Y-63750000D03*
X115000000Y-71500000D03*
X128690000Y-123000000D03*
X136500000Y-29500000D03*
X184500000Y-84000000D03*
%TO.N,Net-(A3-D3)*%
X89000000Y-106500000D03*
X103250000Y-100250000D03*
%TO.N,Net-(A3-SCL{slash}A5)*%
X167500000Y-95500000D03*
X153500000Y-79500000D03*
%TO.N,Net-(IR2-Pin_2)*%
X181000000Y-39000000D03*
X170500000Y-33500000D03*
%TO.N,Net-(IR4-Pin_3)*%
X176500000Y-115000000D03*
X164000000Y-115000000D03*
%TO.N,Net-(M1-+)*%
X148500000Y-98500000D03*
X177000000Y-62500000D03*
X176500000Y-104000000D03*
X139250000Y-102250000D03*
%TO.N,Net-(U5-PD3)*%
X114500000Y-41000000D03*
X131250000Y-27250000D03*
%TO.N,Net-(U5-PD6)*%
X88000000Y-53000000D03*
X86000000Y-59000000D03*
X84500000Y-70500000D03*
X89000000Y-66000000D03*
%TO.N,Net-(U5-PD4)*%
X181500000Y-75000000D03*
X166000000Y-38500000D03*
%TO.N,Net-(U5-PD5)*%
X99000000Y-66000000D03*
X125000000Y-117500000D03*
%TO.N,Net-(U5-PD2)*%
X117500000Y-46500000D03*
X180000000Y-77000000D03*
X85500000Y-65500000D03*
X164500000Y-40500000D03*
X133750000Y-29250000D03*
X84000000Y-57000000D03*
X122500000Y-120500000D03*
X82500000Y-68500000D03*
%TD*%
D24*
%TO.N,GND*%
X78500000Y-66500000D02*
X83500000Y-61500000D01*
X78500000Y-83500000D02*
X78500000Y-66500000D01*
X167000000Y-66500000D02*
X168500000Y-68000000D01*
X142000000Y-112500000D02*
X144500000Y-112500000D01*
X168500000Y-68000000D02*
X168500000Y-68950000D01*
X130250000Y-31750000D02*
X135000000Y-36500000D01*
X172000000Y-68000000D02*
X172000000Y-68950000D01*
X107000000Y-61500000D02*
X109500000Y-64000000D01*
X80500000Y-83500000D02*
X80500000Y-85500000D01*
X172000000Y-66500000D02*
X174000000Y-66500000D01*
X97000000Y-31000000D02*
X96500000Y-31500000D01*
X80500000Y-94000000D02*
X80500000Y-85500000D01*
X165000000Y-65000000D02*
X165000000Y-66500000D01*
X178500000Y-120000000D02*
X143000000Y-120000000D01*
X135000000Y-36500000D02*
X135000000Y-48500000D01*
X139750000Y-114750000D02*
X142000000Y-112500000D01*
X114000000Y-68500000D02*
X109500000Y-64000000D01*
X143000000Y-120000000D02*
X139750000Y-116750000D01*
X116500000Y-68500000D02*
X114000000Y-68500000D01*
X109500000Y-60000000D02*
X109500000Y-64000000D01*
X169550000Y-66500000D02*
X172000000Y-66500000D01*
X96500000Y-31500000D02*
X85500000Y-31500000D01*
X165000000Y-66500000D02*
X165000000Y-68950000D01*
X98000000Y-31000000D02*
X97000000Y-31000000D01*
X174000000Y-66500000D02*
X175000000Y-67500000D01*
X83500000Y-61500000D02*
X107000000Y-61500000D01*
X136310000Y-121190000D02*
X136310000Y-118190000D01*
X167000000Y-66500000D02*
X169550000Y-66500000D01*
X135000000Y-51000000D02*
X135000000Y-48500000D01*
X139750000Y-116750000D02*
X139750000Y-114750000D01*
X80500000Y-85500000D02*
X78500000Y-83500000D01*
X170500000Y-66500000D02*
X172000000Y-68000000D01*
X142500000Y-41000000D02*
X135000000Y-48500000D01*
X136310000Y-118190000D02*
X139750000Y-114750000D01*
X175000000Y-67500000D02*
X175000000Y-68950000D01*
X167000000Y-66500000D02*
X165000000Y-66500000D01*
%TO.N,Net-(A3-VUSB{slash}5V)*%
X141000000Y-95000000D02*
X139500000Y-93500000D01*
X110000000Y-38000000D02*
X126000000Y-22000000D01*
X156000000Y-28570000D02*
X156310000Y-28880000D01*
X88500000Y-39000000D02*
X98000000Y-39000000D01*
X135500000Y-89500000D02*
X131500000Y-85500000D01*
X130000000Y-112000000D02*
X130000000Y-101500000D01*
X156310000Y-23690000D02*
X156500000Y-23500000D01*
X156500000Y-23500000D02*
X157000000Y-24000000D01*
X156310000Y-25190000D02*
X156310000Y-23690000D01*
X170000000Y-24000000D02*
X178000000Y-32000000D01*
X118500000Y-128000000D02*
X127000000Y-119500000D01*
X160500000Y-24000000D02*
X170000000Y-24000000D01*
X163000000Y-62500000D02*
X163000000Y-52000000D01*
X135500000Y-89500000D02*
X135500000Y-87050000D01*
X139500000Y-93500000D02*
X139500000Y-89550000D01*
X127000000Y-115000000D02*
X130000000Y-112000000D01*
X126000000Y-22000000D02*
X155000000Y-22000000D01*
X157000000Y-24000000D02*
X160500000Y-24000000D01*
X96500000Y-128000000D02*
X118500000Y-128000000D01*
X131500000Y-85500000D02*
X131500000Y-84050000D01*
X155000000Y-22000000D02*
X156500000Y-23500000D01*
X98000000Y-39000000D02*
X99000000Y-38000000D01*
X139500000Y-93500000D02*
X135500000Y-89500000D01*
X127000000Y-119500000D02*
X127000000Y-115000000D01*
X163000000Y-52000000D02*
X162500000Y-51500000D01*
X162500000Y-26000000D02*
X160500000Y-24000000D01*
X99000000Y-38000000D02*
X110000000Y-38000000D01*
X162500000Y-51500000D02*
X162500000Y-26000000D01*
%TO.N,Net-(A3-A1)*%
X161000000Y-32000000D02*
X160500000Y-31500000D01*
X172000000Y-80500000D02*
X172000000Y-72050000D01*
X161000000Y-43000000D02*
X161000000Y-32000000D01*
X169000000Y-82350000D02*
X170150000Y-82350000D01*
X160500000Y-31500000D02*
X159500000Y-31500000D01*
X170150000Y-82350000D02*
X172000000Y-80500000D01*
X160000000Y-53000000D02*
X160000000Y-44000000D01*
X160000000Y-44000000D02*
X161000000Y-43000000D01*
X157850000Y-82350000D02*
X157500000Y-82000000D01*
X157500000Y-55500000D02*
X160000000Y-53000000D01*
X157500000Y-82000000D02*
X157500000Y-55500000D01*
%TO.N,Net-(A3-SDA{slash}A4)*%
X162230000Y-87230000D02*
X169500000Y-94500000D01*
X162230000Y-74730000D02*
X162230000Y-87230000D01*
%TO.N,Net-(A3-D7)*%
X135500000Y-75500000D02*
X126500000Y-66500000D01*
X135500000Y-79920000D02*
X135500000Y-75500000D01*
X135500000Y-83950000D02*
X135500000Y-79920000D01*
%TO.N,Net-(A3-D8)*%
X131000000Y-68500000D02*
X139500000Y-77000000D01*
X131000000Y-66500000D02*
X131000000Y-68500000D01*
X139500000Y-77000000D02*
X139500000Y-86450000D01*
%TO.N,Net-(A3-A3)*%
X164500000Y-107500000D02*
X181000000Y-91000000D01*
X163000000Y-107500000D02*
X164500000Y-107500000D01*
X165000000Y-72050000D02*
X165000000Y-75000000D01*
X181000000Y-91000000D02*
X181000000Y-90000000D01*
%TO.N,Net-(A3-D6)*%
X131500000Y-80950000D02*
X131500000Y-77920000D01*
X130920000Y-77500000D02*
X131000000Y-77420000D01*
X131500000Y-77920000D02*
X131000000Y-77420000D01*
X122500000Y-72000000D02*
X128000000Y-77500000D01*
X122500000Y-66500000D02*
X122500000Y-72000000D01*
X128000000Y-77500000D02*
X130920000Y-77500000D01*
%TO.N,Net-(A3-D5)*%
X148000000Y-88500000D02*
X148000000Y-77500000D01*
X165000000Y-96000000D02*
X155500000Y-96000000D01*
X165750000Y-96750000D02*
X165000000Y-96000000D01*
X155500000Y-96000000D02*
X148000000Y-88500000D01*
%TO.N,Net-(A3-A0)*%
X173610000Y-84890000D02*
X175000000Y-83500000D01*
X175000000Y-83500000D02*
X175000000Y-72050000D01*
X143000000Y-30000000D02*
X144000000Y-29000000D01*
X144000000Y-29000000D02*
X145500000Y-29000000D01*
X171000000Y-84890000D02*
X173610000Y-84890000D01*
X156000000Y-83000000D02*
X156000000Y-48500000D01*
X156000000Y-48500000D02*
X143000000Y-35500000D01*
X143000000Y-35500000D02*
X143000000Y-30000000D01*
%TO.N,Net-(A3-A2)*%
X143000000Y-98500000D02*
X143000000Y-97500000D01*
X147500000Y-96500000D02*
X150000000Y-94000000D01*
X168500000Y-78000000D02*
X168500000Y-72050000D01*
X167000000Y-79500000D02*
X168500000Y-78000000D01*
X144000000Y-96500000D02*
X147500000Y-96500000D01*
X143000000Y-97500000D02*
X144000000Y-96500000D01*
%TO.N,+5V*%
X184500000Y-84000000D02*
X168000000Y-100500000D01*
X132000000Y-113000000D02*
X132000000Y-105000000D01*
X143000000Y-54500000D02*
X152500000Y-54500000D01*
X122500000Y-89500000D02*
X122500000Y-75500000D01*
X133000000Y-64500000D02*
X143000000Y-54500000D01*
X168000000Y-100500000D02*
X136500000Y-100500000D01*
X128690000Y-123000000D02*
X128690000Y-116310000D01*
X115000000Y-71500000D02*
X118500000Y-71500000D01*
X136500000Y-100500000D02*
X133500000Y-100500000D01*
X128690000Y-116310000D02*
X132000000Y-113000000D01*
X132000000Y-105000000D02*
X136500000Y-100500000D01*
X80500000Y-67500000D02*
X84250000Y-63750000D01*
X136500000Y-32500000D02*
X136500000Y-29500000D01*
X120500000Y-64500000D02*
X133000000Y-64500000D01*
X106250000Y-63750000D02*
X114000000Y-71500000D01*
X152500000Y-54500000D02*
X154000000Y-54500000D01*
X114000000Y-71500000D02*
X115000000Y-71500000D01*
X84250000Y-63750000D02*
X106250000Y-63750000D01*
X118500000Y-71500000D02*
X118500000Y-66500000D01*
X122500000Y-75500000D02*
X118500000Y-71500000D01*
X152500000Y-54500000D02*
X148000000Y-50000000D01*
X118500000Y-66500000D02*
X120500000Y-64500000D01*
X133500000Y-100500000D02*
X122500000Y-89500000D01*
X148000000Y-50000000D02*
X148000000Y-44000000D01*
X148000000Y-44000000D02*
X136500000Y-32500000D01*
%TO.N,Net-(A3-D3)*%
X89000000Y-106500000D02*
X97000000Y-106500000D01*
X97000000Y-106500000D02*
X103250000Y-100250000D01*
%TO.N,Net-(A3-SCL{slash}A5)*%
X153500000Y-90000000D02*
X158000000Y-94500000D01*
X153500000Y-79500000D02*
X153500000Y-90000000D01*
X166500000Y-94500000D02*
X167500000Y-95500000D01*
X158000000Y-94500000D02*
X166500000Y-94500000D01*
%TO.N,Net-(IR2-Pin_2)*%
X179000000Y-39000000D02*
X181000000Y-39000000D01*
X173500000Y-33500000D02*
X179000000Y-39000000D01*
X170500000Y-33500000D02*
X173500000Y-33500000D01*
%TO.N,Net-(IR4-Pin_3)*%
X164000000Y-115000000D02*
X176500000Y-115000000D01*
%TO.N,Net-(M1-+)*%
X178000000Y-88500000D02*
X168000000Y-98500000D01*
X177000000Y-62500000D02*
X177000000Y-65500000D01*
X171500000Y-104000000D02*
X166000000Y-109500000D01*
X177000000Y-65500000D02*
X178000000Y-66500000D01*
X162000000Y-109500000D02*
X160500000Y-108000000D01*
X160500000Y-108000000D02*
X160500000Y-104000000D01*
X168000000Y-98500000D02*
X148500000Y-98500000D01*
X139500000Y-102000000D02*
X139250000Y-102250000D01*
X158500000Y-102000000D02*
X139500000Y-102000000D01*
X166000000Y-109500000D02*
X162000000Y-109500000D01*
X160500000Y-104000000D02*
X158500000Y-102000000D01*
X176500000Y-104000000D02*
X171500000Y-104000000D01*
X178000000Y-66500000D02*
X178000000Y-88500000D01*
%TO.N,Net-(U5-PD3)*%
X124000000Y-27500000D02*
X114500000Y-37000000D01*
X131000000Y-27500000D02*
X124000000Y-27500000D01*
X131250000Y-27250000D02*
X131000000Y-27500000D01*
X114500000Y-37000000D02*
X114500000Y-41000000D01*
%TO.N,Net-(U5-PD6)*%
X86000000Y-55000000D02*
X88000000Y-53000000D01*
X85500000Y-68500000D02*
X84500000Y-69500000D01*
X86000000Y-59000000D02*
X86000000Y-55000000D01*
X88500000Y-68500000D02*
X85500000Y-68500000D01*
X88950000Y-66050000D02*
X88950000Y-68050000D01*
X89000000Y-66000000D02*
X88950000Y-66050000D01*
X88950000Y-68050000D02*
X88500000Y-68500000D01*
X84500000Y-69500000D02*
X84500000Y-70500000D01*
%TO.N,Net-(U5-PD4)*%
X181500000Y-75000000D02*
X181500000Y-54000000D01*
X181500000Y-54000000D02*
X166000000Y-38500000D01*
%TO.N,Net-(U5-PD5)*%
X115500000Y-100500000D02*
X115500000Y-110500000D01*
X101000000Y-86000000D02*
X115500000Y-100500000D01*
X115500000Y-110500000D02*
X122500000Y-117500000D01*
X122500000Y-117500000D02*
X125000000Y-117500000D01*
X99000000Y-66000000D02*
X101000000Y-68000000D01*
X101000000Y-68000000D02*
X101000000Y-86000000D01*
%TO.N,Net-(U5-PD2)*%
X112500000Y-43500000D02*
X116000000Y-43500000D01*
X84000000Y-57000000D02*
X84000000Y-53000000D01*
X116000000Y-43500000D02*
X117500000Y-45000000D01*
X133500000Y-29500000D02*
X124500000Y-29500000D01*
X122500000Y-120500000D02*
X120000000Y-120500000D01*
X133750000Y-29250000D02*
X133500000Y-29500000D01*
X117500000Y-36500000D02*
X117500000Y-45000000D01*
X117500000Y-46500000D02*
X117500000Y-45000000D01*
X113000000Y-106000000D02*
X82500000Y-75500000D01*
X180000000Y-77000000D02*
X179500000Y-76500000D01*
X124500000Y-29500000D02*
X117500000Y-36500000D01*
X91500000Y-45500000D02*
X110500000Y-45500000D01*
X82500000Y-75500000D02*
X82500000Y-68500000D01*
X85500000Y-65500000D02*
X82500000Y-68500000D01*
X179500000Y-55500000D02*
X164500000Y-40500000D01*
X113000000Y-113500000D02*
X113000000Y-106000000D01*
X120000000Y-120500000D02*
X113000000Y-113500000D01*
X110500000Y-45500000D02*
X112500000Y-43500000D01*
X84000000Y-53000000D02*
X91500000Y-45500000D01*
X179500000Y-76500000D02*
X179500000Y-55500000D01*
%TD*%
D25*
X76500000Y-20000000D02*
X188500000Y-20000000D01*
X188500000Y-132000000D01*
X76500000Y-132000000D01*
X76500000Y-20000000D01*
M02*
