M48
; DRILL file {KiCad 9.0.7} date 2026-02-22T13:37:17+0000
; FORMAT={-:-/ absolute / metric / decimal}
; #@! TF.CreationDate,2026-02-22T13:37:17+00:00
; #@! TF.GenerationSoftware,Kicad,Pcbnew,9.0.7
; #@! TF.FileFunction,Plated,1,2,PTH
FMAT,2
METRIC
; #@! TA.AperFunction,Plated,PTH,ViaDrill
T1C0.700
; #@! TA.AperFunction,Plated,PTH,ComponentDrill
T2C0.700
; #@! TA.AperFunction,Plated,PTH,ComponentDrill
T3C0.800
; #@! TA.AperFunction,Plated,PTH,ComponentDrill
T4C1.000
; #@! TA.AperFunction,Plated,PTH,ComponentDrill
T5C3.200
%
G90
G05
T1
X80.5Y-67.5
X80.5Y-83.5
X80.5Y-94.0
X82.5Y-68.5
X84.0Y-57.0
X84.5Y-70.5
X85.5Y-31.5
X85.5Y-65.5
X86.0Y-59.0
X88.0Y-53.0
X88.5Y-39.0
X89.0Y-66.0
X89.0Y-106.5
X96.5Y-128.0
X98.0Y-31.0
X99.0Y-66.0
X103.25Y-100.25
X106.25Y-63.75
X109.5Y-60.0
X114.5Y-41.0
X115.0Y-71.5
X116.5Y-68.5
X117.5Y-46.5
X122.5Y-66.5
X122.5Y-120.5
X125.0Y-117.5
X126.5Y-66.5
X128.69Y-123.0
X130.0Y-101.5
X130.25Y-31.75
X131.0Y-66.5
X131.15Y-77.27
X131.25Y-27.25
X133.75Y-29.25
X135.0Y-51.0
X135.5Y-79.92
X136.31Y-121.19
X136.5Y-29.5
X139.25Y-102.25
X139.57Y-82.35
X141.0Y-95.0
X142.5Y-41.0
X143.0Y-98.5
X144.5Y-112.5
X145.5Y-29.0
X148.0Y-77.5
X148.5Y-98.5
X150.0Y-94.0
X153.5Y-79.5
X154.0Y-54.5
X156.0Y-83.0
X156.31Y-25.19
X157.85Y-82.35
X159.5Y-31.5
X162.23Y-74.73
X163.0Y-62.5
X163.0Y-107.5
X164.0Y-115.0
X164.5Y-40.5
X165.0Y-65.0
X165.0Y-75.0
X165.75Y-96.75
X166.0Y-38.5
X167.0Y-79.5
X167.5Y-95.5
X169.0Y-82.35
X169.5Y-94.5
X170.5Y-33.5
X171.0Y-84.89
X174.0Y-66.5
X176.5Y-104.0
X176.5Y-115.0
X177.0Y-62.5
X178.0Y-32.0
X178.5Y-120.0
X180.0Y-77.0
X181.0Y-39.0
X181.0Y-90.0
X181.5Y-75.0
X184.5Y-84.0
T2
X86.5Y-71.25
X86.5Y-110.75
X104.5Y-71.25
X104.5Y-110.75
X108.97Y-71.5
X108.97Y-110.5
X126.47Y-71.5
X126.47Y-110.5
T3
X91.8Y-49.5
X91.8Y-57.12
X94.34Y-49.5
X94.34Y-57.12
X96.88Y-49.5
X96.88Y-57.12
X99.42Y-49.5
X99.42Y-57.12
X101.96Y-49.5
X101.96Y-57.12
X102.12Y-31.12
X102.12Y-36.12
X102.18Y-41.62
X104.5Y-49.5
X104.5Y-57.12
X107.04Y-49.5
X107.04Y-57.12
X107.06Y-41.62
X107.12Y-31.12
X107.12Y-36.12
X109.58Y-49.5
X109.58Y-57.12
X112.12Y-49.5
X112.12Y-57.12
X114.66Y-49.5
X114.66Y-57.12
X117.2Y-49.5
X117.2Y-57.12
X119.74Y-49.5
X119.74Y-57.12
X122.28Y-49.5
X122.28Y-57.12
X124.82Y-49.5
X124.82Y-57.12
X148.19Y-104.69
X148.19Y-107.23
X148.19Y-109.77
X148.19Y-112.31
X148.69Y-28.88
X148.69Y-31.42
X148.69Y-33.96
X148.69Y-36.5
X155.81Y-104.69
X155.81Y-107.23
X155.81Y-109.77
X155.81Y-112.31
X156.31Y-28.88
X156.31Y-31.42
X156.31Y-33.96
X156.31Y-36.5
T4
X80.5Y-72.19
X80.5Y-74.73
X80.5Y-77.27
X80.5Y-79.81
X80.5Y-101.42
X80.5Y-103.96
X80.5Y-106.5
X80.5Y-111.0
X80.5Y-113.54
X80.5Y-116.08
X80.5Y-118.62
X81.0Y-45.92
X81.0Y-48.46
X81.0Y-51.0
X81.5Y-31.5
X81.5Y-34.04
X81.5Y-36.58
X81.5Y-39.12
X96.5Y-113.96
X96.5Y-116.5
X128.69Y-128.0
X128.88Y-24.0
X131.0Y-51.34
X131.0Y-53.88
X131.0Y-56.42
X131.0Y-58.96
X131.0Y-61.5
X131.23Y-128.0
X131.42Y-24.0
X133.77Y-128.0
X133.96Y-24.0
X136.31Y-128.0
X136.5Y-24.0
X144.5Y-56.95
X144.5Y-59.49
X144.5Y-62.03
X144.5Y-64.57
X144.5Y-67.11
X144.5Y-69.65
X144.5Y-72.19
X144.5Y-74.73
X144.5Y-77.27
X144.5Y-79.81
X144.5Y-82.35
X144.5Y-84.89
X144.5Y-87.43
X144.5Y-89.97
X144.5Y-92.51
X159.74Y-56.95
X159.74Y-59.49
X159.74Y-62.03
X159.74Y-64.57
X159.74Y-67.11
X159.74Y-69.65
X159.74Y-72.19
X159.74Y-74.73
X159.74Y-77.27
X159.74Y-79.81
X159.74Y-82.35
X159.74Y-84.89
X159.74Y-87.43
X159.74Y-89.97
X159.74Y-92.51
X184.0Y-33.88
X184.0Y-36.42
X184.0Y-38.96
X184.0Y-41.5
X184.0Y-47.0
X184.0Y-49.54
X184.0Y-52.08
X184.5Y-72.38
X184.5Y-74.92
X184.5Y-77.46
X184.5Y-80.0
X184.5Y-89.96
X184.5Y-92.5
X184.5Y-95.04
X184.5Y-97.58
X184.5Y-101.5
X184.5Y-104.04
X184.5Y-106.58
X184.5Y-112.38
X184.5Y-114.92
X184.5Y-117.46
X184.5Y-120.0
T5
X81.0Y-24.5
X81.0Y-127.5
X184.0Y-24.5
X184.0Y-127.5
T4
G00X103.2Y-115.7
M15
G01X105.8Y-115.7
M16
G05
G00X103.4Y-122.0
M15
G01X105.6Y-122.0
M16
G05
G00X109.3Y-117.5
M15
G01X109.3Y-119.7
M16
G05
M30
